<svg xmlns="http://www.w3.org/2000/svg" width="800" height="620" viewBox="0 0 800 620">
  <defs><marker id="a" markerWidth="8" markerHeight="8" refX="7" refY="3" orient="auto"><path d="M0 0L7 3L0 6Z" fill="#111"/></marker><style>text{font-family:Arial,sans-serif;fill:#111}.p{font-size:17px}.c{font-size:21px;text-anchor:middle}.l{stroke:#111;stroke-width:2;marker-end:url(#a)}.b{stroke:#111;stroke-width:2;marker-start:url(#a);marker-end:url(#a)}</style></defs>
  <rect width="800" height="620" fill="#fff"/><rect x="270" y="40" width="300" height="480" fill="#fff" stroke="#111" stroke-width="2"/>
  <text x="420" y="85" class="c">Cache de mapeamento direto</text><text x="420" y="118" class="c">4 linhas x 2 bytes</text>
  <rect x="305" y="155" width="230" height="230" fill="#fff" stroke="#111" stroke-width="2"/>
  <line x1="355" y1="155" x2="355" y2="385" stroke="#111" stroke-width="2"/><line x1="420" y1="155" x2="420" y2="385" stroke="#111" stroke-width="2"/><line x1="478" y1="155" x2="478" y2="385" stroke="#111" stroke-width="2"/>
  <line x1="305" y1="195" x2="535" y2="195" stroke="#111" stroke-width="2"/><line x1="305" y1="242" x2="535" y2="242" stroke="#111" stroke-width="2"/><line x1="305" y1="289" x2="535" y2="289" stroke="#111" stroke-width="2"/><line x1="305" y1="336" x2="535" y2="336" stroke="#111" stroke-width="2"/>
  <text x="330" y="182" text-anchor="middle" class="p">V</text><text x="387" y="182" text-anchor="middle" class="p">Tag</text><text x="449" y="182" text-anchor="middle" class="p">B0</text><text x="506" y="182" text-anchor="middle" class="p">B1</text>
  <text x="290" y="225" text-anchor="end" class="p">L0</text><text x="290" y="272" text-anchor="end" class="p">L1</text><text x="290" y="319" text-anchor="end" class="p">L2</text><text x="290" y="366" text-anchor="end" class="p">L3</text>
  <text x="105" y="125" class="p">TAG (2 bits)</text><line x1="215" y1="120" x2="270" y2="120" class="l"/>
  <text x="90" y="185" class="p">LINHA (2 bits)</text><line x1="225" y1="180" x2="270" y2="180" class="l"/>
  <text x="105" y="245" class="p">BYTE (1 bit)</text><line x1="215" y1="240" x2="270" y2="240" class="l"/>
  <text x="70" y="435" class="p">Bloco da MP (2 bytes)</text><line x1="235" y1="430" x2="270" y2="430" class="b"/>
  <line x1="570" y1="245" x2="665" y2="245" class="b"/><text x="680" y="251" class="p">Dado</text>
  <line x1="350" y1="570" x2="350" y2="520" class="l"/><text x="350" y="598" text-anchor="middle" class="p">Acerto</text>
  <line x1="490" y1="570" x2="490" y2="520" class="l"/><text x="490" y="598" text-anchor="middle" class="p">Falta</text>
  <text x="420" y="425" class="c">Endereco: TAG | LINHA | BYTE</text><text x="420" y="465" class="c">Linha = bloco mod 4</text>
</svg>

