<svg xmlns="http://www.w3.org/2000/svg" width="760" height="680" viewBox="0 0 760 680">
  <defs>
    <marker id="a" markerWidth="8" markerHeight="8" refX="7" refY="3" orient="auto"><path d="M0 0L7 3L0 6Z" fill="#111"/></marker>
    <style>text{font-family:Arial,sans-serif;fill:#111}.p{font-size:17px}.c{font-size:22px;text-anchor:middle}.l{stroke:#111;stroke-width:2;marker-end:url(#a)}.b{stroke:#111;stroke-width:2;marker-start:url(#a);marker-end:url(#a)}</style>
  </defs>
  <rect width="760" height="680" fill="#fff"/>
  <rect x="285" y="30" width="220" height="555" fill="#fff" stroke="#111" stroke-width="2"/>
  <g class="p">
    <text x="190" y="60">A0</text><line x1="225" y1="55" x2="285" y2="55" class="l"/>
    <text x="190" y="82">A1</text><line x1="225" y1="77" x2="285" y2="77" class="l"/>
    <text x="190" y="104">A2</text><line x1="225" y1="99" x2="285" y2="99" class="l"/>
    <text x="190" y="126">A3</text><line x1="225" y1="121" x2="285" y2="121" class="l"/>
    <text x="190" y="148">A4</text><line x1="225" y1="143" x2="285" y2="143" class="l"/>
    <text x="190" y="170">A5</text><line x1="225" y1="165" x2="285" y2="165" class="l"/>
    <text x="190" y="192">A6</text><line x1="225" y1="187" x2="285" y2="187" class="l"/>
    <text x="190" y="214">A7</text><line x1="225" y1="209" x2="285" y2="209" class="l"/>
    <text x="190" y="236">A8</text><line x1="225" y1="231" x2="285" y2="231" class="l"/>
    <text x="190" y="258">A9</text><line x1="225" y1="253" x2="285" y2="253" class="l"/>
    <text x="180" y="280">A10</text><line x1="225" y1="275" x2="285" y2="275" class="l"/>
    <text x="180" y="302">A11</text><line x1="225" y1="297" x2="285" y2="297" class="l"/>
    <text x="180" y="324">A12</text><line x1="225" y1="319" x2="285" y2="319" class="l"/>
    <text x="160" y="390">/RAS</text><line x1="225" y1="385" x2="285" y2="385" class="l"/>
    <text x="160" y="425">/CAS</text><line x1="225" y1="420" x2="285" y2="420" class="l"/>
    <text x="125" y="490">Banco 0</text><line x1="225" y1="485" x2="285" y2="485" class="l"/>
    <text x="125" y="525">Banco 1</text><line x1="225" y1="520" x2="285" y2="520" class="l"/>
  </g>
  <text x="395" y="230" class="c">Chip de memoria</text>
  <text x="395" y="265" class="c">128 M x 4</text>
  <text x="395" y="305" class="c">(512 Mbits)</text>
  <line x1="505" y1="220" x2="590" y2="220" class="b"/><text x="610" y="226" class="p">D0</text>
  <line x1="505" y1="260" x2="590" y2="260" class="b"/><text x="610" y="266" class="p">D1</text>
  <line x1="505" y1="300" x2="590" y2="300" class="b"/><text x="610" y="306" class="p">D2</text>
  <line x1="505" y1="340" x2="590" y2="340" class="b"/><text x="610" y="346" class="p">D3</text>
  <line x1="335" y1="635" x2="335" y2="585" class="l"/><text x="335" y="662" text-anchor="middle" class="p">/CS</text>
  <line x1="395" y1="635" x2="395" y2="585" class="l"/><text x="395" y="662" text-anchor="middle" class="p">/WE</text>
  <line x1="455" y1="635" x2="455" y2="585" class="l"/><text x="455" y="662" text-anchor="middle" class="p">/OE</text>
</svg>

