<svg xmlns="http://www.w3.org/2000/svg" width="700" height="620" viewBox="0 0 700 620">
  <defs>
    <marker id="a" markerWidth="8" markerHeight="8" refX="7" refY="3" orient="auto"><path d="M0 0L7 3L0 6Z" fill="#111"/></marker>
    <style>text{font-family:Arial,sans-serif;fill:#111}.p{font-size:17px}.c{font-size:22px;text-anchor:middle}.l{stroke:#111;stroke-width:2;marker-end:url(#a)}.b{stroke:#111;stroke-width:2;marker-start:url(#a);marker-end:url(#a)}</style>
  </defs>
  <rect width="700" height="620" fill="#fff"/>
  <rect x="255" y="35" width="220" height="485" fill="#fff" stroke="#111" stroke-width="2"/>
  <g class="p">
    <text x="170" y="70">A0</text><line x1="205" y1="65" x2="255" y2="65" class="l"/>
    <text x="170" y="94">A1</text><line x1="205" y1="89" x2="255" y2="89" class="l"/>
    <text x="170" y="118">A2</text><line x1="205" y1="113" x2="255" y2="113" class="l"/>
    <text x="170" y="142">A3</text><line x1="205" y1="137" x2="255" y2="137" class="l"/>
    <text x="170" y="166">A4</text><line x1="205" y1="161" x2="255" y2="161" class="l"/>
    <text x="170" y="190">A5</text><line x1="205" y1="185" x2="255" y2="185" class="l"/>
    <text x="170" y="214">A6</text><line x1="205" y1="209" x2="255" y2="209" class="l"/>
    <text x="170" y="238">A7</text><line x1="205" y1="233" x2="255" y2="233" class="l"/>
    <text x="170" y="262">A8</text><line x1="205" y1="257" x2="255" y2="257" class="l"/>
    <text x="170" y="286">A9</text><line x1="205" y1="281" x2="255" y2="281" class="l"/>
    <text x="160" y="310">A10</text><line x1="205" y1="305" x2="255" y2="305" class="l"/>
    <text x="145" y="380">/RAS</text><line x1="205" y1="375" x2="255" y2="375" class="l"/>
    <text x="145" y="420">/CAS</text><line x1="205" y1="415" x2="255" y2="415" class="l"/>
  </g>
  <text x="365" y="220" class="c">Chip de memoria</text>
  <text x="365" y="255" class="c">4096 K x 1</text>
  <text x="365" y="295" class="c">(4 Mbits)</text>
  <line x1="475" y1="255" x2="560" y2="255" class="b"/><text x="580" y="261" class="p">D</text>
  <line x1="305" y1="570" x2="305" y2="520" class="l"/><text x="305" y="598" text-anchor="middle" class="p">/CS</text>
  <line x1="365" y1="570" x2="365" y2="520" class="l"/><text x="365" y="598" text-anchor="middle" class="p">/WE</text>
  <line x1="425" y1="570" x2="425" y2="520" class="l"/><text x="425" y="598" text-anchor="middle" class="p">/OE</text>
</svg>

