<svg xmlns="http://www.w3.org/2000/svg" width="780" height="680" viewBox="0 0 780 680">
  <defs><marker id="a" markerWidth="8" markerHeight="8" refX="7" refY="3" orient="auto"><path d="M0 0L7 3L0 6Z" fill="#111"/></marker><style>text{font-family:Arial,sans-serif;fill:#111}.p{font-size:17px}.c{font-size:21px;text-anchor:middle}.s{font-size:16px;text-anchor:middle}.l{stroke:#111;stroke-width:2;marker-end:url(#a)}.b{stroke:#111;stroke-width:2;marker-start:url(#a);marker-end:url(#a)}</style></defs>
  <rect width="780" height="680" fill="#fff"/><rect x="285" y="30" width="240" height="555" fill="#fff" stroke="#111" stroke-width="2"/>
  <g class="p">
    <text x="190" y="60">A0</text><line x1="225" y1="55" x2="285" y2="55" class="l"/><text x="190" y="82">A1</text><line x1="225" y1="77" x2="285" y2="77" class="l"/>
    <text x="190" y="104">A2</text><line x1="225" y1="99" x2="285" y2="99" class="l"/><text x="190" y="126">A3</text><line x1="225" y1="121" x2="285" y2="121" class="l"/>
    <text x="190" y="148">A4</text><line x1="225" y1="143" x2="285" y2="143" class="l"/><text x="190" y="170">A5</text><line x1="225" y1="165" x2="285" y2="165" class="l"/>
    <text x="190" y="192">A6</text><line x1="225" y1="187" x2="285" y2="187" class="l"/><text x="190" y="214">A7</text><line x1="225" y1="209" x2="285" y2="209" class="l"/>
    <text x="190" y="236">A8</text><line x1="225" y1="231" x2="285" y2="231" class="l"/><text x="190" y="258">A9</text><line x1="225" y1="253" x2="285" y2="253" class="l"/>
    <text x="180" y="280">A10</text><line x1="225" y1="275" x2="285" y2="275" class="l"/><text x="180" y="302">A11</text><line x1="225" y1="297" x2="285" y2="297" class="l"/>
    <text x="180" y="324">A12</text><line x1="225" y1="319" x2="285" y2="319" class="l"/>
    <text x="160" y="390">/RAS</text><line x1="225" y1="385" x2="285" y2="385" class="l"/><text x="160" y="425">/CAS</text><line x1="225" y1="420" x2="285" y2="420" class="l"/>
    <text x="155" y="495">Banco</text><line x1="225" y1="490" x2="285" y2="490" class="l"/>
  </g>
  <text x="405" y="175" class="c">Sistema de memoria</text><text x="405" y="210" class="c">8 Gbits</text>
  <text x="405" y="260" class="s">2 bancos</text><text x="405" y="292" class="s">4 chips 64 M x 16</text><text x="405" y="318" class="s">por banco</text><text x="405" y="360" class="s">8 chips no total</text>
  <line x1="525" y1="185" x2="610" y2="185" class="b"/><text x="630" y="191" class="p">D0</text><line x1="525" y1="220" x2="610" y2="220" class="b"/><text x="630" y="226" class="p">D1</text>
  <text x="565" y="260" class="p">...</text><line x1="525" y1="300" x2="610" y2="300" class="b"/><text x="630" y="306" class="p">D62</text><line x1="525" y1="335" x2="610" y2="335" class="b"/><text x="630" y="341" class="p">D63</text>
  <line x1="345" y1="635" x2="345" y2="585" class="l"/><text x="345" y="662" text-anchor="middle" class="p">/CS</text><line x1="405" y1="635" x2="405" y2="585" class="l"/><text x="405" y="662" text-anchor="middle" class="p">/WE</text><line x1="465" y1="635" x2="465" y2="585" class="l"/><text x="465" y="662" text-anchor="middle" class="p">/OE</text>
</svg>

